<svg width="24" height="24" viewBox="0 0 24 24" fill="none" xmlns="http://www.w3.org/2000/svg">
<path d="M2 8.608V16.75C1.99995 17.5801 2.31755 18.3788 2.88767 18.9822C3.45779 19.5856 4.23719 19.948 5.066 19.995L5.25 20H18.75C19.5801 20.0001 20.3788 19.6824 20.9822 19.1123C21.5856 18.5422 21.948 17.7628 21.995 16.934L22 16.75V8.608L12.348 13.664C12.2406 13.7202 12.1212 13.7496 12 13.7496C11.8788 13.7496 11.7594 13.7202 11.652 13.664L2 8.608ZM18.75 4H5.25C4.44442 3.9999 3.66751 4.299 3.06996 4.83927C2.47241 5.37954 2.09681 6.12248 2.016 6.924L12 12.154L21.984 6.924C21.9065 6.15431 21.557 5.43752 20.9983 4.90246C20.4395 4.36741 19.7083 4.04919 18.936 4.005L18.75 4H5.25H18.75Z" fill="#E8C300"/>
</svg>
