<svg width="24" height="38" viewBox="0 0 24 38" fill="none" xmlns="http://www.w3.org/2000/svg">
<path d="M23.2008 35.392C21.6468 36.134 20.2408 36.654 18.9828 36.954C17.6425 37.2596 16.2714 37.4092 14.8968 37.4C13.2348 37.4 11.7648 37.186 10.4868 36.764C9.28735 36.381 8.17588 35.7637 7.21678 34.948C6.31478 34.158 5.68878 33.324 5.34078 32.44C4.99278 31.554 4.81878 30.268 4.81878 28.588V15.678H0.800781V10.47C2.22878 10.002 3.45278 9.32998 4.47078 8.44998C5.49171 7.57119 6.32614 6.4967 6.92478 5.28998C7.54078 4.06398 7.96278 2.49798 8.19678 0.599976H13.3668V9.90398H21.9948V15.678H13.3668V25.116C13.3668 27.248 13.4788 28.62 13.7028 29.226C13.9248 29.832 14.3408 30.316 14.9468 30.676C15.7528 31.164 16.6728 31.41 17.7088 31.41C19.5488 31.41 21.3808 30.804 23.2008 29.594V35.392V35.392Z" fill="white"/>
</svg>
