<svg width="16" height="16" viewBox="0 0 16 16" fill="none" xmlns="http://www.w3.org/2000/svg">
<g clip-path="url(#clip0_1743_46)">
<path fill-rule="evenodd" clip-rule="evenodd" d="M14.115 0.511147C13.94 0.336436 13.7299 0.200905 13.4986 0.113537C13.2673 0.0261686 13.02 -0.0110424 12.7733 0.00436978C12.5265 0.019782 12.2858 0.0874655 12.0671 0.202935C11.8485 0.318404 11.6569 0.479023 11.505 0.674147L9.71 2.98015C9.381 3.40315 9.265 3.95415 9.395 4.47415L9.942 6.66415C9.97028 6.77758 9.96876 6.89639 9.93757 7.00906C9.90638 7.12172 9.84659 7.22441 9.764 7.30715L7.307 9.76415C7.22417 9.8469 7.12131 9.90679 7.00845 9.93798C6.89559 9.96918 6.77658 9.97061 6.663 9.94215L4.474 9.39515C4.21739 9.33099 3.94955 9.326 3.69072 9.38057C3.4319 9.43514 3.18887 9.54784 2.98 9.71015L0.674002 11.5041C-0.154998 12.1491 -0.230998 13.3741 0.511002 14.1151L1.545 15.1491C2.285 15.8891 3.391 16.2141 4.422 15.8511C7.06082 14.9227 9.45673 13.412 11.432 11.4311C13.4127 9.45616 14.9234 7.06061 15.852 4.42215C16.214 3.39215 15.889 2.28515 15.149 1.54515L14.115 0.511147Z" fill="#E8C300"/>
</g>
<defs>
<clipPath id="clip0_1743_46">
<rect width="16" height="16" fill="white"/>
</clipPath>
</defs>
</svg>
