<svg width="40" height="24" viewBox="0 0 40 24" fill="none" xmlns="http://www.w3.org/2000/svg">
<path fill-rule="evenodd" clip-rule="evenodd" d="M35.6042 16.596C35.6042 16.596 38.8382 19.79 39.6382 21.268C39.6537 21.2894 39.6659 21.313 39.6742 21.338C40.0002 21.884 40.0802 22.312 39.9202 22.628C39.6502 23.15 38.7362 23.412 38.4262 23.434H32.7102C32.3122 23.434 31.4842 23.33 30.4762 22.634C29.7062 22.096 28.9402 21.21 28.1982 20.344C27.0902 19.058 26.1322 17.942 25.1622 17.942C25.0397 17.9418 24.918 17.9621 24.8022 18.002C24.0682 18.234 23.1362 19.28 23.1362 22.066C23.1362 22.938 22.4482 23.434 21.9662 23.434H19.3482C18.4562 23.434 13.8122 23.122 9.69418 18.78C4.64818 13.464 0.11618 2.80004 0.0721801 2.70604C-0.20982 2.01604 0.38218 1.64004 1.02218 1.64004H6.79418C7.56818 1.64004 7.82018 2.10804 7.99618 2.52804C8.20018 3.01004 8.95618 4.93804 10.1962 7.10404C12.2042 10.628 13.4382 12.062 14.4242 12.062C14.6094 12.0626 14.7915 12.0143 14.9522 11.922C16.2402 11.214 16.0002 6.61404 15.9402 5.66604C15.9402 5.48204 15.9382 3.61204 15.2782 2.70804C14.8062 2.06004 14.0022 1.80804 13.5162 1.71604C13.6462 1.52804 13.9222 1.24004 14.2762 1.07004C15.1582 0.63004 16.7522 0.56604 18.3342 0.56604H19.2122C20.9282 0.59004 21.3722 0.70004 21.9962 0.85804C23.2522 1.15804 23.2762 1.97204 23.1662 4.74404C23.1342 5.53604 23.1002 6.42804 23.1002 7.47804C23.1002 7.70204 23.0902 7.95204 23.0902 8.20604C23.0522 9.62804 23.0022 11.23 24.0062 11.888C24.1364 11.9692 24.2868 12.0121 24.4402 12.012C24.7882 12.012 25.8302 12.012 28.6562 7.16204C29.8962 5.02004 30.8562 2.49404 30.9222 2.30404C30.9782 2.19804 31.1462 1.90004 31.3502 1.78004C31.4953 1.70283 31.6578 1.66426 31.8222 1.66804H38.6122C39.3522 1.66804 39.8542 1.78004 39.9522 2.06004C40.1162 2.51404 39.9202 3.90004 36.8202 8.09204C36.2982 8.79004 35.8402 9.39404 35.4382 9.92204C32.6282 13.61 32.6282 13.796 35.6042 16.596V16.596Z" fill="white"/>
</svg>
